<?xml version="1.0" encoding="UTF-8" standalone="no"?>
<!-- Created with Inkscape (http://www.inkscape.org/) -->

<svg
   xmlns:dc="http://purl.org/dc/elements/1.1/"
   xmlns:cc="http://creativecommons.org/ns#"
   xmlns:rdf="http://www.w3.org/1999/02/22-rdf-syntax-ns#"
   xmlns:svg="http://www.w3.org/2000/svg"
   xmlns="http://www.w3.org/2000/svg"
   xmlns:sodipodi="http://sodipodi.sourceforge.net/DTD/sodipodi-0.dtd"
   xmlns:inkscape="http://www.inkscape.org/namespaces/inkscape"
   version="1.0"
   width="300"
   height="800"
   viewBox="0 0 300 800"
   id="Layer_1"
   xml:space="preserve"
   inkscape:version="0.48.5 r10040"
   sodipodi:docname="violin.svg"><sodipodi:namedview
     pagecolor="#ffffff"
     bordercolor="#666666"
     borderopacity="1"
     objecttolerance="10"
     gridtolerance="10"
     guidetolerance="10"
     inkscape:pageopacity="0"
     inkscape:pageshadow="2"
     inkscape:window-width="1440"
     inkscape:window-height="844"
     id="namedview13"
     showgrid="false"
     inkscape:zoom="2.9229194"
     inkscape:cx="150.16323"
     inkscape:cy="783.33262"
     inkscape:window-x="0"
     inkscape:window-y="27"
     inkscape:window-maximized="1"
     inkscape:current-layer="g5"
     inkscape:snap-nodes="false" /><defs
     id="defs20" /><metadata
     id="metadata4"><rdf:RDF><cc:Work
         rdf:about=""><dc:title /><dc:description>Violin Silhouette</dc:description><dc:subject><rdf:Bag><rdf:li>music</rdf:li><rdf:li>instrument</rdf:li><rdf:li>violin</rdf:li><rdf:li>silhouette</rdf:li></rdf:Bag></dc:subject><dc:publisher><cc:Agent
             rdf:about="http://www.openclipart.org/"><dc:title>Open Clip Art Project</dc:title></cc:Agent></dc:publisher><dc:creator><cc:Agent
             rdf:about=""><dc:title>Gerald G.</dc:title></cc:Agent></dc:creator><dc:rights><cc:Agent
             rdf:about="http://web.resource.org/cc/PublicDomain"><dc:title>Public Domain</dc:title></cc:Agent></dc:rights><dc:date>2006/10/02</dc:date><dc:format>image/svg+xml</dc:format><dc:type
           rdf:resource="http://purl.org/dc/dcmitype/StillImage">http://purl.org/dc/dcmitype/StillImage</dc:type><cc:license
           rdf:resource="http://web.resource.org/cc/PublicDomain" /></cc:Work><cc:License
         rdf:about="http://web.resource.org/cc/PublicDomain"><cc:permits
           rdf:resource="http://web.resource.org/cc/Reproduction" /><cc:permits
           rdf:resource="http://web.resource.org/cc/Distribution" /><cc:permits
           rdf:resource="http://web.resource.org/cc/DerivativeWorks" /></cc:License></rdf:RDF></metadata><g
     id="g5"
     transform="matrix(1.4048502,0.70494544,-0.70494544,1.4048502,151.54832,302.17272)"><g
       id="g2996"
       transform="matrix(0,-1,1,0,-100.87098,294.3913)"
       style="fill:#ffffff;stroke:none"><path
         inkscape:connector-curvature="0"
         id="path9"
         style="fill:#ffffff;fill-opacity:1;fill-rule:evenodd;stroke:none"
         d="m 110.678,99.225 -6.696,-0.468 0,0 c -1.008,3.024 -2.772,5.364 -5.832,7.164 -2.988,1.692 -4.824,1.764 -12.168,3.564 -7.596,1.656 -22.104,3.564 -32.4,6.984 -10.368,3.384 -20.844,7.308 -28.944,13.572 -8.208,6.228 -15.264,13.932 -19.368,23.939 -4.068,9.973 -5.004,25.416 -5.184,35.641 -0.396,10.115 0.972,17.531 3.132,24.731 2.088,7.092 5.112,12.672 9.216,17.316 l 0,0 c -1.296,2.412 -1.44,4.896 -0.288,7.452 1.116,2.483 3.384,5.04 6.948,7.668 l 0,0 c 1.836,6.407 6.336,13.176 13.5,20.592 7.236,7.344 18.792,18 29.376,23.364 10.332,5.256 21.78,8.279 32.688,8.243 10.944,-0.252 22.68,-4.319 32.292,-9.144 9.432,-4.896 17.496,-13.752 24.192,-19.476 6.408,-5.688 10.044,-11.376 14.94,-14.437 4.968,-3.168 9.612,-4.536 14.472,-4.248 l 0,0 3.384,-5.22 0,0 c -2.556,-0.937 -4.356,-2.592 -5.544,-4.968 -1.296,-2.521 -2.556,-5.58 -1.548,-9.612 0.936,-4.068 3.096,-9.468 7.596,-14.4 4.464,-5.147 13.428,-11.808 18.972,-15.552 5.436,-3.744 9.684,-5.616 13.428,-6.588 3.636,-1.116 5.508,-1.656 8.532,0.324 2.988,2.016 5.904,5.688 9.145,11.412 l 0,0 7.308,0.359 0,0 c 1.225,-2.844 3.024,-5.147 5.4,-7.308 2.304,-2.124 3.744,-3.636 8.748,-5.364 5.04,-1.728 13.607,-2.7 20.987,-5.292 7.272,-2.808 16.2,-6.516 22.32,-11.124 5.977,-4.644 10.332,-9.899 13.608,-16.596 3.275,-6.912 5.58,-15.3 5.651,-24.191 -0.107,-9.072 -2.124,-18.432 -6.048,-29.052 l 0,0 102.024,-55.296 0,0 c 3.348,-2.232 6.84,-4.392 10.764,-6.624 3.853,-2.304 7.956,-4.536 12.456,-6.84 l 0,0 c 0.576,0.72 1.512,0.9 2.952,0.396 1.404,-0.576 3.06,-1.584 5.256,-3.42 l 0,0 c 0.504,2.556 1.62,3.852 3.348,4.284 1.729,0.216 5.58,-0.9 6.841,-2.232 1.188,-1.404 1.115,-3.132 0.071,-5.616 l 0,0 c 2.196,-1.044 3.564,-2.124 4.104,-3.24 0.468,-1.188 0.107,-2.268 -1.08,-3.528 l 0,0 c 2.664,0.072 4.104,-0.828 4.319,-2.844 0.036,-2.16 -1.367,-7.776 -3.096,-9.216 -1.656,-1.404 -3.888,-1.044 -6.695,1.08 l 0,0 c -0.793,-1.729 -1.584,-2.736 -2.916,-3.024 -1.297,-0.36 -2.809,0.144 -4.681,1.224 l 0,0 c -0.792,-2.232 -1.8,-3.78 -3.312,-4.248 -1.548,-0.468 -4.176,-0.108 -5.508,0.936 -1.44,0.792 -2.305,2.844 -2.448,4.212 -0.145,1.368 0.324,2.556 1.548,3.852 l 0,0 c -2.016,0.288 -3.492,0.864 -4.572,1.872 -1.116,0.972 -1.584,2.232 -1.691,3.924 l 0,0 c 0.18,-0.684 -2.521,0.18 -8.101,2.592 -5.76,2.376 -14.076,6.192 -25.632,11.592 l 0,0 -97.452,44.568 0,0 c -1.439,-4.536 -4.644,-9.216 -9.468,-14.04 -5.004,-4.968 -12.24,-11.736 -19.62,-15.048 -7.524,-3.312 -16.596,-5.004 -24.444,-4.644 -7.884,0.18 -14.94,2.628 -22.284,6.228 -7.488,3.672 -16.56,11.556 -21.96,15.48 -5.472,3.744 -6.624,5.796 -10.404,7.128 -3.852,1.188 -7.668,1.368 -12.024,0.396 l 0,0 -4.032,6.156 0,0 c 3.132,2.52 4.824,5.328 4.932,8.424 0,3.096 -0.612,6.48 -4.356,10.008 -3.924,3.348 -11.34,7.704 -18.216,10.296 -6.876,2.592 -15.66,4.932 -22.464,5.076 -6.912,-0.036 -14.4,-1.728 -18.432,-4.932 -4.03,-3.237 -5.83,-7.881 -5.542,-14.217 l 0,0 z" /><path
         inkscape:connector-curvature="0"
         id="path11"
         style="fill:#ffffff;fill-opacity:1;fill-rule:evenodd;stroke:none"
         d="m 395.727,39.645 -5.508,-11.052 0,0 c -0.757,-0.216 -1.261,-0.324 -1.368,-0.72 -0.145,-0.396 -0.036,-0.864 0.468,-1.404 l 0,0 c -0.216,-0.864 -0.684,-1.44 -1.26,-1.584 -0.648,-0.216 -1.477,0.612 -2.484,0.54 -1.08,-0.144 -2.771,-0.396 -3.708,-1.296 -1.116,-1.044 -2.196,-2.556 -2.124,-4.68 0.036,-2.232 1.26,-6.228 2.556,-8.1 1.225,-1.872 2.952,-2.808 5.04,-2.952 2.053,-0.18 5.076,0.324 6.984,1.656 1.836,1.188 3.564,3.456 3.78,5.436 0.036,1.908 -2.844,4.86 -3.24,6.084 -0.468,1.224 -0.252,1.548 0.648,1.116 l 0,0 c 0.323,0.036 0.611,0.216 0.72,0.684 0.107,0.396 0.036,0.972 -0.072,1.728 l 0,0 5.364,10.836 0,0 c -1.909,1.224 -3.853,2.448 -5.796,3.708 l 0,0 z" /><path
         inkscape:connector-curvature="0"
         id="path13"
         style="fill:#ffffff;fill-opacity:1;fill-rule:evenodd;stroke:none"
         d="m 412.646,30.825 -6.192,-12.78 0,0 c 0.324,-0.864 0.252,-1.476 -0.216,-1.836 -0.468,-0.36 -1.404,-0.54 -2.664,-0.396 l 0,0 c 0.324,-1.764 0.18,-3.672 -0.432,-5.724 -0.756,-2.196 -3.024,-5.256 -3.313,-6.804 -0.288,-1.584 0.9,-2.16 1.765,-2.556 0.792,-0.576 2.159,-1.152 3.132,-0.216 0.792,0.936 0.864,3.852 2.16,5.832 1.224,1.908 3.023,3.528 5.399,5.256 l 0,0 c -0.432,0.504 -0.611,1.116 -0.54,1.548 0,0.432 0.324,0.828 0.828,1.188 l 0,0 6.372,13.176 -5.4,3.276 -0.899,0.036 0,0 z" /><path
         inkscape:connector-curvature="0"
         id="path15"
         style="fill:#ffffff;fill-opacity:1;fill-rule:evenodd;stroke:none"
         d="m 412.574,51.777 6.156,12.816 0,0 c 0.828,0.252 1.26,0.684 1.296,1.296 0.036,0.54 -0.54,1.368 -1.332,2.34 l 0,0 c 1.548,0.864 2.952,2.124 4.212,3.924 1.296,1.8 2.124,5.544 3.313,6.804 1.008,1.08 2.124,0.54 3.06,0.18 0.864,-0.468 2.268,-1.008 2.124,-2.304 -0.288,-1.296 -2.521,-3.24 -3.204,-5.292 -0.72,-2.196 -0.936,-4.608 -0.792,-7.524 l 0,0 c -0.756,-0.036 -1.224,-0.216 -1.548,-0.54 -0.324,-0.324 -0.504,-0.828 -0.396,-1.368 l 0,0 -6.407,-13.212 -5.904,2.232 -0.578,0.648 0,0 z" /><path
         inkscape:connector-curvature="0"
         id="path17"
         style="fill:#ffffff;fill-opacity:1;fill-rule:evenodd;stroke:none"
         d="m 425.75,43.245 5.292,11.16 0,0 c -0.396,0.684 -0.54,1.26 -0.288,1.584 0.181,0.36 0.648,0.468 1.404,0.468 l 0,0 c 0.504,0.756 0.648,1.368 0.432,1.98 -0.396,0.576 -1.367,0.648 -1.943,1.584 -0.685,0.864 -1.44,2.304 -1.296,3.744 0,1.404 0.684,3.204 2.34,4.572 1.691,1.188 5.58,2.844 7.92,3.024 2.232,0.072 3.996,-0.684 5.436,-2.124 1.368,-1.476 2.845,-4.428 3.061,-6.516 0.107,-2.232 -0.432,-5.04 -1.908,-6.336 -1.476,-1.224 -5.688,-0.936 -6.804,-1.224 -1.26,-0.36 -1.404,-0.9 -0.433,-1.224 l 0,0 c 0.145,-0.36 0.108,-0.684 -0.107,-0.972 -0.288,-0.288 -0.756,-0.756 -1.404,-1.008 l 0,0 -5.147,-10.944 0,0 c -2.162,0.72 -4.359,1.476 -6.555,2.232 l 0,0 z" /></g></g></svg>